<svg width="21" height="21" viewBox="0 0 21 21" fill="none" xmlns="http://www.w3.org/2000/svg">
<path fill-rule="evenodd" clip-rule="evenodd" d="M8.61694 5.96997C8.97564 5.96997 9.29408 6.1995 9.40751 6.53978L10.6299 10.207L14.2971 11.4294C14.6374 11.5428 14.8669 11.8613 14.8669 12.22C14.8669 12.5787 14.6374 12.8971 14.2971 13.0105L10.6299 14.2329L9.40751 17.9002C9.29408 18.2404 8.97564 18.47 8.61694 18.47C8.25825 18.47 7.9398 18.2404 7.82637 17.9002L6.60397 14.2329L2.93675 13.0105C2.59647 12.8971 2.36694 12.5787 2.36694 12.22C2.36694 11.8613 2.59647 11.5428 2.93675 11.4294L6.60397 10.207L7.82637 6.53978C7.9398 6.1995 8.25825 5.96997 8.61694 5.96997ZM8.61694 9.43854L8.05335 11.1293C7.9704 11.3782 7.77514 11.5734 7.5263 11.6564L5.83551 12.22L7.5263 12.7836C7.77514 12.8665 7.9704 13.0618 8.05335 13.3106L8.61694 15.0014L9.18054 13.3106C9.26349 13.0618 9.45875 12.8665 9.70759 12.7836L11.3984 12.22L9.70759 11.6564C9.45875 11.5734 9.26349 11.3782 9.18054 11.1293L8.61694 9.43854Z" fill="white"/>
<path fill-rule="evenodd" clip-rule="evenodd" d="M15.2836 2.96997C15.4988 2.96997 15.6899 3.10769 15.758 3.31186L16.4081 5.26219L18.3584 5.9123C18.5626 5.98035 18.7003 6.17142 18.7003 6.38664C18.7003 6.60185 18.5626 6.79292 18.3584 6.86098L16.4081 7.51109L15.758 9.46142C15.6899 9.66559 15.4988 9.8033 15.2836 9.8033C15.0684 9.8033 14.8773 9.66559 14.8093 9.46142L14.1592 7.51109L12.2088 6.86098C12.0047 6.79292 11.8669 6.60185 11.8669 6.38664C11.8669 6.17142 12.0047 5.98035 12.2088 5.9123L14.1592 5.26219L14.8093 3.31186C14.8773 3.10769 15.0684 2.96997 15.2836 2.96997Z" fill="white"/>
</svg>
