<svg width="20" height="20" viewBox="0 0 20 20" fill="none" xmlns="http://www.w3.org/2000/svg">
<g clip-path="url(#clip0_219_25716)">
<path d="M14.1902 18.7028C15.1521 18.6088 16.1123 18.4974 17.0702 18.3685C17.3811 18.3278 17.6697 18.1849 17.8905 17.9622C18.1114 17.7396 18.252 17.4498 18.2902 17.1385C18.4045 16.22 18.5173 15.2643 18.6087 14.2857M5.8116 1.29712C4.84966 1.39114 3.8895 1.50259 2.9316 1.6314C2.62061 1.67179 2.33186 1.81439 2.11076 2.03678C1.88966 2.25918 1.74874 2.54876 1.71017 2.85998C1.5895 3.80973 1.48329 4.76127 1.3916 5.71426M14.1902 1.29712C15.1759 1.3914 16.1402 1.50855 17.0702 1.6314C17.3809 1.67208 17.6693 1.81481 17.8901 2.03718C18.111 2.25955 18.2517 2.54897 18.2902 2.85998C18.4045 3.77998 18.5173 4.73569 18.6087 5.71426M5.8116 18.7028C4.84976 18.6079 3.88961 18.4965 2.9316 18.3685C2.6204 18.3281 2.33149 18.1853 2.11036 17.9626C1.88923 17.7399 1.74845 17.45 1.71017 17.1385C1.58951 16.1893 1.48331 15.2382 1.3916 14.2857M10.0002 7.37426V5.53855" stroke="white" stroke-width="1.5" stroke-linecap="round" stroke-linejoin="round"/>
<path d="M11.8531 11.6314V11.0771M8.14306 11.6314V11.0771M10.0002 7.37427C11.1245 7.37427 12.2916 7.37427 13.3273 7.50855C13.7616 7.56273 14.1664 7.75727 14.4799 8.06259C14.7935 8.36791 14.9988 8.76729 15.0645 9.19998C15.1488 9.7757 15.1488 10.36 15.1488 11.3543C15.1488 12.35 15.1488 12.9343 15.0631 13.5086C14.9975 13.9408 14.7926 14.3399 14.4796 14.6452C14.1666 14.9504 13.7626 15.1452 13.3288 15.2C12.2931 15.3357 11.1259 15.3357 10.0016 15.3357C8.87878 15.3357 7.71163 15.3357 6.67592 15.2C6.24163 15.1458 5.83692 14.9513 5.52335 14.6459C5.20978 14.3406 5.00452 13.9412 4.93878 13.5086C4.85449 12.9343 4.85449 12.35 4.85449 11.3543C4.85449 10.3586 4.85449 9.7757 4.93878 9.19998C5.00452 8.76729 5.20978 8.36791 5.52335 8.06259C5.83692 7.75727 6.24163 7.56273 6.67592 7.50855C7.71163 7.37427 8.87735 7.37427 10.0002 7.37427Z" stroke="white" stroke-width="1.5" stroke-linecap="round" stroke-linejoin="round"/>
<path d="M10.0003 5.52006C10.8803 5.52006 11.376 5.02434 11.376 4.14434C11.376 3.26434 10.8803 2.77148 10.0003 2.77148C9.12026 2.77148 8.62598 3.2672 8.62598 4.14577C8.62598 5.02434 9.12169 5.52006 10.0003 5.52006Z" stroke="white" stroke-width="1.5" stroke-linecap="round" stroke-linejoin="round"/>
</g>
<defs>
<clipPath id="clip0_219_25716">
<rect width="20" height="20" fill="white" transform="translate(0.000244141)"/>
</clipPath>
</defs>
</svg>
