<svg width="24" height="24" viewBox="0 0 24 24" fill="none" xmlns="http://www.w3.org/2000/svg">
<path d="M13.0002 3.002C12.5302 3.00067 12.0302 3 11.5002 3C7.02224 3 4.78224 3 3.39124 4.391C2.00024 5.782 2.00024 8.021 2.00024 12.5C2.00024 16.978 2.00024 19.218 3.39124 20.609C4.78224 22 7.02124 22 11.5002 22C15.9782 22 18.2182 22 19.6092 20.609C21.0002 19.218 21.0002 16.979 21.0002 12.5C21.0002 11.97 20.9996 11.47 20.9982 11" stroke="white" stroke-width="1.5" stroke-linecap="round" stroke-linejoin="round"/>
<path d="M7.00024 17.5C9.33224 15.058 13.6432 14.943 16.0002 17.5M18.5002 2L18.7582 2.697C19.0962 3.611 19.2652 4.068 19.5982 4.401C19.9322 4.735 20.3892 4.904 21.3032 5.242L22.0002 5.5L21.3032 5.758C20.3892 6.096 19.9322 6.265 19.5992 6.598C19.2652 6.932 19.0962 7.389 18.7582 8.303L18.5002 9L18.2422 8.303C17.9042 7.389 17.7352 6.932 17.4022 6.599C17.0682 6.265 16.6112 6.096 15.6972 5.758L15.0002 5.5L15.6972 5.242C16.6112 4.904 17.0682 4.735 17.4012 4.402C17.7352 4.068 17.9042 3.611 18.2422 2.697L18.5002 2ZM13.9952 10C13.9952 11.38 12.8752 12.5 11.4922 12.5C11.1636 12.5005 10.8381 12.4362 10.5343 12.3108C10.2305 12.1854 9.95446 12.0014 9.72189 11.7692C9.48932 11.537 9.30481 11.2612 9.17893 10.9576C9.05304 10.6541 8.98824 10.3286 8.98824 10C8.98824 8.62 10.1082 7.5 11.4922 7.5C11.8208 7.49961 12.1462 7.56398 12.4499 7.68944C12.7535 7.8149 13.0295 7.99899 13.262 8.23117C13.4944 8.46336 13.6788 8.73909 13.8047 9.0426C13.9305 9.34611 13.9952 9.67144 13.9952 10Z" stroke="white" stroke-width="1.5" stroke-linecap="round" stroke-linejoin="round"/>
</svg>
