<svg width="23" height="20" viewBox="0 0 23 20" fill="none" xmlns="http://www.w3.org/2000/svg">
<path fill-rule="evenodd" clip-rule="evenodd" d="M13.63 11.6667C14.7596 11.6667 15.843 12.1057 16.6417 12.8871C17.4405 13.6685 17.8892 14.7283 17.8892 15.8334V17.5001C17.8892 17.7211 17.7995 17.9331 17.6397 18.0893C17.48 18.2456 17.2633 18.3334 17.0374 18.3334C16.8115 18.3334 16.5948 18.2456 16.435 18.0893C16.2753 17.9331 16.1855 17.7211 16.1855 17.5001V15.8334C16.1855 15.1704 15.9163 14.5345 15.437 14.0656C14.9578 13.5968 14.3078 13.3334 13.63 13.3334H6.81517C6.13739 13.3334 5.48738 13.5968 5.00812 14.0656C4.52886 14.5345 4.25961 15.1704 4.25961 15.8334V17.5001C4.25961 17.7211 4.16986 17.9331 4.01011 18.0893C3.85036 18.2456 3.63369 18.3334 3.40776 18.3334C3.18183 18.3334 2.96516 18.2456 2.80541 18.0893C2.64566 17.9331 2.55591 17.7211 2.55591 17.5001V15.8334C2.55591 14.7283 3.00465 13.6685 3.80342 12.8871C4.60218 12.1057 5.68554 11.6667 6.81517 11.6667H13.63ZM10.2226 1.66675C11.3522 1.66675 12.4356 2.10573 13.2343 2.88714C14.0331 3.66854 14.4818 4.72835 14.4818 5.83341C14.4818 6.93848 14.0331 7.99829 13.2343 8.77969C12.4356 9.56109 11.3522 10.0001 10.2226 10.0001C9.09295 10.0001 8.00959 9.56109 7.21082 8.77969C6.41206 7.99829 5.96332 6.93848 5.96332 5.83341C5.96332 4.72835 6.41206 3.66854 7.21082 2.88714C8.00959 2.10573 9.09295 1.66675 10.2226 1.66675ZM10.2226 3.33341C9.88697 3.33341 9.55466 3.39808 9.24461 3.52372C8.93455 3.64935 8.65283 3.8335 8.41552 4.06565C8.17822 4.29779 7.98998 4.57339 7.86155 4.87671C7.73312 5.18002 7.66702 5.50511 7.66702 5.83341C7.66702 6.16172 7.73312 6.48681 7.86155 6.79012C7.98998 7.09344 8.17822 7.36904 8.41552 7.60118C8.65283 7.83333 8.93455 8.01748 9.24461 8.14311C9.55466 8.26875 9.88697 8.33341 10.2226 8.33341C10.9003 8.33341 11.5504 8.07002 12.0296 7.60118C12.5089 7.13234 12.7781 6.49646 12.7781 5.83341C12.7781 5.17037 12.5089 4.53449 12.0296 4.06565C11.5504 3.59681 10.9003 3.33341 10.2226 3.33341Z" fill="white"/>
<path d="M18.3152 5.8335L18.535 6.41433C18.8229 7.176 18.9669 7.55683 19.2506 7.83433C19.5351 8.11266 19.9244 8.2535 20.703 8.53516L21.2967 8.75016L20.703 8.96516C19.9244 9.24683 19.5351 9.38766 19.2514 9.66516C18.9669 9.9435 18.8229 10.3243 18.535 11.086L18.3152 11.6668L18.0954 11.086C17.8075 10.3243 17.6636 9.9435 17.3799 9.666C17.0954 9.38766 16.7061 9.24683 15.9275 8.96516L15.3337 8.75016L15.9275 8.53516C16.7061 8.2535 17.0954 8.11266 17.379 7.83516C17.6636 7.55683 17.8075 7.176 18.0954 6.41433L18.3152 5.8335Z" stroke="white" stroke-width="1.5" stroke-linecap="round" stroke-linejoin="round"/>
</svg>
