<svg width="21" height="21" viewBox="0 0 21 21" fill="none" xmlns="http://www.w3.org/2000/svg">
<path d="M3.19995 17.6369L4.28328 14.3869C2.34662 11.5227 3.09495 7.82689 6.03328 5.74189C8.97162 3.65773 13.1916 3.82856 15.9041 6.14189C18.6166 8.45606 18.9833 12.1969 16.7616 14.8927C14.54 17.5886 10.4158 18.4052 7.11662 16.8036L3.19995 17.6369Z" stroke="white" stroke-width="1.5" stroke-linecap="round" stroke-linejoin="round"/>
<path fill-rule="evenodd" clip-rule="evenodd" d="M8.29782 7.63696C8.39665 7.63696 8.48438 7.7036 8.51563 7.80239L8.81415 8.7461L9.70971 9.06067C9.80346 9.0936 9.8667 9.18605 9.8667 9.29019C9.8667 9.39433 9.80346 9.48678 9.70971 9.51971L8.81415 9.83428L8.51563 10.778C8.48438 10.8768 8.39665 10.9434 8.29782 10.9434C8.199 10.9434 8.11126 10.8768 8.08001 10.778L7.78149 9.83428L6.88593 9.51971C6.79218 9.48678 6.72894 9.39433 6.72894 9.29019C6.72894 9.18605 6.79218 9.0936 6.88593 9.06067L7.78149 8.7461L8.08001 7.80239C8.11126 7.7036 8.199 7.63696 8.29782 7.63696Z" fill="white"/>
<path fill-rule="evenodd" clip-rule="evenodd" d="M12.7749 9.30347C12.9066 9.30347 13.0236 9.39232 13.0653 9.52404L13.4633 10.7823L14.6574 11.2017C14.7824 11.2456 14.8667 11.3689 14.8667 11.5078C14.8667 11.6466 14.7824 11.7699 14.6574 11.8138L13.4633 12.2332L13.0653 13.4915C13.0236 13.6232 12.9066 13.7121 12.7749 13.7121C12.6431 13.7121 12.5261 13.6232 12.4844 13.4915L12.0864 12.2332L10.8923 11.8138C10.7673 11.7699 10.683 11.6466 10.683 11.5078C10.683 11.3689 10.7673 11.2456 10.8923 11.2017L12.0864 10.7823L12.4844 9.52404C12.5261 9.39232 12.6431 9.30347 12.7749 9.30347Z" fill="white"/>
</svg>
