<svg width="21" height="21" viewBox="0 0 21 21" fill="none" xmlns="http://www.w3.org/2000/svg">
<path d="M6.94998 12.2202C9.03331 14.3036 12.3666 14.3036 14.45 12.2202M15.535 15.3802C15.535 15.3802 15.5992 15.3344 15.7017 15.2561C17.2375 14.0686 18.2017 12.3477 18.2017 10.4319C18.2017 6.86025 14.8433 3.96191 10.7017 3.96191C6.55999 3.96191 3.20166 6.86025 3.20166 10.4319C3.20166 14.0052 6.55999 16.8036 10.7017 16.8036C11.055 16.8036 11.635 16.7802 12.4417 16.7336C13.4933 17.4169 15.0283 17.9777 16.3717 17.9777C16.7875 17.9777 16.9833 17.6361 16.7167 17.2877C16.3117 16.7911 15.7533 15.9952 15.5367 15.3794L15.535 15.3802Z" stroke="white" stroke-width="1.5" stroke-linecap="round" stroke-linejoin="round"/>
</svg>
