<svg width="20" height="20" viewBox="0 0 20 20" fill="none" xmlns="http://www.w3.org/2000/svg">
<path d="M17.2609 6.77342L17.0559 7.24509C17.0239 7.32189 16.9698 7.3875 16.9006 7.43365C16.8313 7.4798 16.75 7.50442 16.6667 7.50442C16.5835 7.50442 16.5022 7.4798 16.4329 7.43365C16.3637 7.3875 16.3096 7.32189 16.2776 7.24509L16.0726 6.77342C15.7121 5.93902 15.0521 5.27002 14.2226 4.89842L13.5901 4.61592C13.5133 4.58062 13.4483 4.52406 13.4028 4.45294C13.3572 4.38183 13.333 4.29913 13.333 4.21467C13.333 4.13021 13.3572 4.04751 13.4028 3.9764C13.4483 3.90528 13.5133 3.84872 13.5901 3.81342L14.1876 3.54759C15.0379 3.1654 15.7093 2.47166 16.0634 1.60925L16.2742 1.10009C16.3052 1.02122 16.3592 0.953502 16.4292 0.905775C16.4992 0.858047 16.582 0.83252 16.6667 0.83252C16.7515 0.83252 16.8342 0.858047 16.9043 0.905775C16.9743 0.953502 17.0283 1.02122 17.0592 1.10009L17.2701 1.60842C17.6238 2.47098 18.2949 3.16503 19.1451 3.54759L19.7434 3.81425C19.8199 3.84965 19.8847 3.90621 19.9301 3.97723C19.9755 4.04826 19.9996 4.13079 19.9996 4.21509C19.9996 4.29938 19.9755 4.38192 19.9301 4.45294C19.8847 4.52397 19.8199 4.58052 19.7434 4.61592L19.1101 4.89759C18.2808 5.26956 17.621 5.93886 17.2609 6.77342ZM10.0001 1.66675C5.39758 1.66675 1.66675 5.39759 1.66675 10.0001C1.66675 11.4193 2.02091 12.7551 2.64675 13.9243L1.66675 18.3334L6.07591 17.3534C7.28315 17.9987 8.63123 18.3353 10.0001 18.3334C14.6026 18.3334 18.3334 14.6026 18.3334 10.0001C18.3334 9.66453 18.314 9.33398 18.2751 9.00842L16.6201 9.20425C16.6512 9.46537 16.6667 9.73064 16.6667 10.0001C16.6667 11.7682 15.9644 13.4639 14.7141 14.7141C13.4639 15.9644 11.7682 16.6668 10.0001 16.6668C8.90536 16.6686 7.82719 16.3995 6.86175 15.8834L6.31758 15.5926L3.86175 16.1384L4.40758 13.6826L4.11591 13.1384C3.60013 12.1729 3.3313 11.0947 3.33341 10.0001C3.33316 8.98249 3.56585 7.97834 4.01366 7.06458C4.46148 6.15082 5.11253 5.3517 5.91693 4.72845C6.72133 4.1052 7.65773 3.67437 8.65438 3.46896C9.65102 3.26355 10.6815 3.28902 11.6667 3.54342L12.0817 1.92925C11.4151 1.75759 10.7176 1.66675 10.0001 1.66675ZM7.50008 10.0001H5.83342C5.83342 11.1052 6.2724 12.165 7.0538 12.9464C7.83521 13.7278 8.89501 14.1668 10.0001 14.1668C11.1052 14.1668 12.165 13.7278 12.9464 12.9464C13.7278 12.165 14.1667 11.1052 14.1667 10.0001H12.5001C12.5001 10.6631 12.2367 11.299 11.7678 11.7679C11.299 12.2367 10.6631 12.5001 10.0001 12.5001C9.33704 12.5001 8.70116 12.2367 8.23231 11.7679C7.76347 11.299 7.50008 10.6631 7.50008 10.0001Z" fill="white"/>
</svg>
