<svg width="20" height="20" viewBox="0 0 20 20" fill="none" xmlns="http://www.w3.org/2000/svg">
<path d="M4.89551 4.16211C5.86049 3.46928 8.43581 2.22655 11.3428 2.58984C11.7537 2.64129 12.0455 3.01579 11.9941 3.42676C11.9458 3.81188 11.6133 4.09279 11.2334 4.08398L11.1572 4.07812L10.7051 4.03613C8.46107 3.90495 6.4804 4.87117 5.77051 5.38086L5.76758 5.38379C3.13852 7.24942 2.51241 10.4938 4.20508 12.9971C4.33525 13.1901 4.36856 13.4334 4.29492 13.6543L3.62598 15.6602L6.26074 15.0996L6.38379 15.084C6.50759 15.0786 6.63151 15.1045 6.74414 15.1592C8.18228 15.8572 10.5302 15.9757 12.625 15.209C14.6824 14.4559 16.3887 12.8933 16.7578 10.3105C16.8166 9.90075 17.1966 9.61625 17.6064 9.6748C18.0162 9.73365 18.3007 10.1136 18.2422 10.5234C17.7776 13.7733 15.5915 15.7211 13.1406 16.6182C10.8309 17.4635 8.189 17.4146 6.33496 16.6172L2.65625 17.4004C2.39328 17.4563 2.11969 17.3673 1.94043 17.167C1.76129 16.9666 1.70326 16.6847 1.78809 16.4297L2.75879 13.5186C0.841665 10.3446 1.75674 6.39184 4.89551 4.16211Z" fill="white"/>
<path d="M16.2505 2.66577C16.4236 2.66597 16.5776 2.77693 16.6323 2.94116L17.1558 4.51147L18.7251 5.03491C18.8895 5.08971 19.0005 5.24347 19.0005 5.41675C19.0004 5.58998 18.8894 5.7438 18.7251 5.79858L17.1558 6.32202L16.6323 7.89233C16.5776 8.05657 16.4236 8.16752 16.2505 8.16772C16.0772 8.16772 15.9225 8.05672 15.8677 7.89233L15.3452 6.32202L13.7749 5.79858C13.6106 5.7438 13.4996 5.58998 13.4995 5.41675C13.4995 5.24347 13.6105 5.08971 13.7749 5.03491L15.3452 4.51147L15.8677 2.94116C15.9225 2.77678 16.0772 2.66577 16.2505 2.66577Z" fill="white"/>
</svg>
